<?xml version="1.0" encoding="UTF-8"?>
<svg width="50px" height="50px" viewBox="0 0 50 50" version="1.1" xmlns="http://www.w3.org/2000/svg" xmlns:xlink="http://www.w3.org/1999/xlink">
    <title>Group 8</title>
    <g id="Page-1" stroke="none" stroke-width="1" fill="none" fill-rule="evenodd">
        <g id="Artboard" transform="translate(-8.000000, -10.000000)">
            <g id="Group-8" transform="translate(8.000000, 10.000000)">
                <circle id="Oval" fill="#1A1B33" cx="25" cy="25" r="25"></circle>
                <g id="logo-mark-color" transform="translate(17.852941, 5.470588)" fill="#FB8521" fill-rule="nonzero">
                    <path d="M12.3333123,13.955727 C9.97498037,18.2743696 8.83735057,23.0593445 8.38045259,25.4275016 C8.98041963,27.1975368 9.57346397,29.4176841 9.57346397,31.2749032 C9.57346397,35.0319195 7.14590504,36.4309164 7.14590504,36.4309164 C7.14590504,36.4309164 4.72065368,35.0319195 4.72065368,31.2749032 C4.72065368,29.4075464 5.26754671,27.1610413 5.92058775,25.3950611 C6.99591328,22.0942394 11.9202581,12.5770054 11.9202581,12.5770054 C11.9202581,12.5770054 10.9095444,9.39175303 9.9126761,6.88977885 L9.72807086,6.43155668 C9.64255416,7.31545748 9.46332504,8.19041533 9.19271566,9.0450451 C9.03118607,5.57796581 7.14590504,0.529411765 7.14590504,0.529411765 C7.14590504,0.529411765 7.14590504,2.60965934 3.64763571,11.8998098 C2.10848951,15.9812312 0.147058824,20.6790223 0.147058824,24.6894801 C0.147058824,34.7764505 7.14590504,38.5294118 7.14590504,38.5294118 C7.14590504,38.5294118 14.1470588,34.7764505 14.1470588,24.6894801 C14.1470588,21.32986 13.3694092,17.532293 12.3333123,13.955727 Z" id="Path"></path>
                </g>
            </g>
        </g>
    </g>
</svg>